<svg xmlns="http://www.w3.org/2000/svg" viewBox="0 0 183.48 81.43"><defs><style>.cls-1{fill:#ee6a4c;}</style></defs><g id="Layer_2" data-name="Layer 2"><g id="Layer_1-2" data-name="Layer 1"><path class="cls-1" d="M183.48,23.22c-.07.32-.12.65-.2,1a6.8,6.8,0,0,1-6.69,5.32H169.8A2.59,2.59,0,0,0,167,32.3v6.92a6.83,6.83,0,0,1-13.62.65q-.06-.65-.06-1.29c0-2.79.08-5.58.14-8.37,0-.25-.09-.27-.31-.26-3.18.05-6.35.17-9.53.12a6.83,6.83,0,0,1-.67-13.56,8.89,8.89,0,0,1,1.15-.08h6.84a2.54,2.54,0,0,0,2.71-2.72V6.84a6.84,6.84,0,1,1,13.68,0c0,2.4,0,4.81,0,7.21,0,.55-.05,1.09-.1,1.63,0,.25,0,.32.3.31,1.18-.07,2.35-.13,3.52-.15,1.86,0,3.73,0,5.59,0a6.83,6.83,0,0,1,6.78,6,1.47,1.47,0,0,0,.08.28Z"/><path d="M24.25,50a14.14,14.14,0,0,1-1.84,7.5,10.87,10.87,0,0,1-8.47,5.4,13.42,13.42,0,0,1-5.7-.47,10.4,10.4,0,0,1-6.87-6.1,15.17,15.17,0,0,1,.4-13.43A10.81,10.81,0,0,1,10.54,37a12.51,12.51,0,0,1,7.55,1.28,11.33,11.33,0,0,1,5.76,7.89,35.92,35.92,0,0,1,.5,3.73Zm-19.41,0c0,.63.07,1.26.14,1.88a9.73,9.73,0,0,0,.24,1.31c.89,3.7,3.44,5.53,6.29,5.79A6.81,6.81,0,0,0,18.43,55a12.42,12.42,0,0,0,.4-9,6.55,6.55,0,0,0-6-4.93,6.52,6.52,0,0,0-6.36,3A10.61,10.61,0,0,0,4.84,49.94Z"/><path d="M72.12,61.93v.5c0,2,0,4.07,0,6.1,0,.43-.13.53-.54.52q-1.74,0-3.48,0c-.32,0-.41-.09-.41-.41q0-12,0-24a.42.42,0,0,1,.39-.49,27.79,27.79,0,0,1,7.91-.9,8.75,8.75,0,0,1,8.5,7.71,12.83,12.83,0,0,1-1,7.51,7.38,7.38,0,0,1-6.87,4.41A9.27,9.27,0,0,1,72.42,62Zm0-9.32c0,1.66,0,3.32,0,5a.66.66,0,0,0,.4.67,6.45,6.45,0,0,0,2.69.83c2.08.11,3.63-.55,4.41-2.71a9.49,9.49,0,0,0,0-6.27,4.13,4.13,0,0,0-2.87-2.84,10,10,0,0,0-4.38-.11c-.3,0-.29.24-.29.47Z"/><path d="M89,53a10.51,10.51,0,0,1,2.3-6.87,8.3,8.3,0,0,1,6.31-3,8.93,8.93,0,0,1,5.33,1.31,8.65,8.65,0,0,1,3.88,5.79,11.65,11.65,0,0,1-1.07,8.41,8.19,8.19,0,0,1-7.3,4.29,8.64,8.64,0,0,1-5.77-1.71,9.1,9.1,0,0,1-3.43-5.9C89.08,54.57,89.05,53.8,89,53Zm13.62,0c0-.56-.07-1.12-.15-1.67A5.35,5.35,0,0,0,100.82,48a4.16,4.16,0,0,0-6.6,1.5,8.79,8.79,0,0,0,0,7.14A3.85,3.85,0,0,0,98,59.1a4,4,0,0,0,3.86-2.36A8.33,8.33,0,0,0,102.59,53Z"/><path d="M45.3,52.77c0,2.87,0,5.73,0,8.6a.51.51,0,0,1-.47.6,29.29,29.29,0,0,1-8,.88,7.12,7.12,0,0,1-5.44-2.32,7.55,7.55,0,0,1-1.65-4.17,27.73,27.73,0,0,1-.15-2.87c0-3.08,0-6.16,0-9.24,0-.6,0-.6.57-.6,1.14,0,2.27,0,3.4,0,.36,0,.46.11.46.46,0,3.21,0,6.42,0,9.62a12.64,12.64,0,0,0,.3,2.6A3.07,3.07,0,0,0,37.72,59c.9,0,1.8-.1,2.7-.15.37,0,.48-.2.48-.58q0-7,0-14c0-.63,0-.63.64-.63h3.18c.59,0,.59,0,.59.57Z"/><path d="M116.91,62.85a14,14,0,0,1-5.44-.94c-.33-.11-.41-.26-.34-.59q.33-1.43.6-2.85c.06-.33.18-.39.48-.27a13,13,0,0,0,5.33,1,9.77,9.77,0,0,0,1.7-.22,1.42,1.42,0,0,0,1.22-1.22,1.63,1.63,0,0,0-.65-1.7,9.21,9.21,0,0,0-1.65-.93c-1.13-.5-2.31-.92-3.44-1.44a5,5,0,0,1-3.06-3.34c-.79-3.38.72-6,4.28-6.91a13.94,13.94,0,0,1,6.39.12c.46.09.91.23,1.37.34.25.06.31.2.26.44-.23,1-.46,1.92-.65,2.89-.07.32-.19.35-.47.24a10.24,10.24,0,0,0-4.93-.66,3.73,3.73,0,0,0-1,.27,1.63,1.63,0,0,0-.39,2.85,10.84,10.84,0,0,0,2,1.05c1.14.51,2.32.92,3.43,1.47A4.86,4.86,0,0,1,124.8,56a6.39,6.39,0,0,1-.17,3.22,4.77,4.77,0,0,1-3,2.94A11.67,11.67,0,0,1,116.91,62.85Z"/><path d="M51.56,47.29q0-4.07,0-8.12c0-.39.11-.55.51-.6,1.17-.15,2.32-.35,3.48-.55.36-.07.45,0,.45.38,0,1.58,0,3.15,0,4.73,0,.4.1.54.52.53,1.91,0,3.81,0,5.72,0,.36,0,.47.11.46.46,0,.92,0,1.83,0,2.75,0,.37-.13.45-.48.45-1.92,0-3.84,0-5.76,0-.35,0-.46.11-.46.46,0,2.5,0,5,0,7.48a8.13,8.13,0,0,0,.34,2.19c.33,1.13,1.22,1.64,2.61,1.68a8.91,8.91,0,0,0,3.28-.55c.38-.14.49,0,.56.33.16.87.36,1.74.55,2.6,0,.19.11.39-.17.5a11.58,11.58,0,0,1-7.61.48,5.2,5.2,0,0,1-3.75-4.62,21,21,0,0,1-.24-3C51.54,52.36,51.56,49.82,51.56,47.29Z"/><path d="M129.64,47.26c0-2.69,0-5.38,0-8.08,0-.41.11-.56.54-.61,1.15-.15,2.29-.34,3.43-.55.39-.07.46.06.46.41,0,1.59,0,3.18,0,4.77,0,.35.09.46.46.46,1.9,0,3.81,0,5.71,0,.43,0,.54.13.53.54,0,.87,0,1.75,0,2.62,0,.38-.09.52-.5.51-1.9,0-3.81,0-5.71,0-.39,0-.48.12-.48.49,0,2.46,0,4.93,0,7.39a8.82,8.82,0,0,0,.17,1.62A2.54,2.54,0,0,0,137,59.1a8.76,8.76,0,0,0,3.32-.56c.31-.11.45-.09.52.28.16.9.38,1.79.57,2.69,0,.2.07.37-.2.48a11.72,11.72,0,0,1-7.37.54,5.23,5.23,0,0,1-4-4.68,19.32,19.32,0,0,1-.24-2.94C129.62,52.36,129.64,49.81,129.64,47.26Z"/><path d="M91.76,77.15c0-1.26,0-2.52,0-3.78,0-.32.1-.42.42-.42,1.18,0,1.18,0,1.18,1.15,0,.66,0,1.32,0,2,0,.23.08.32.32.32,1,0,1.95,0,2.92,0,.31,0,.36-.13.35-.38,0-.88,0-1.75,0-2.62,0-.33.09-.45.44-.45,1.21,0,1.21,0,1.21,1.21,0,2.25,0,4.5,0,6.74,0,.42-.13.54-.54.53-1.11,0-1.11,0-1.11-1.14,0-.73,0-1.46,0-2.19,0-.3-.1-.39-.4-.38-1,0-1.89,0-2.84,0-.28,0-.37.09-.36.37,0,1,0,2,0,2.92,0,.32-.1.41-.42.42-1.19,0-1.19,0-1.19-1.15Z"/><path d="M131.75,77.2c0-1.28,0-2.55,0-3.83,0-.31.08-.42.41-.42,1.19,0,1.19,0,1.19,1.18,0,.63,0,1.26,0,1.89,0,.27.06.39.36.38q1.44,0,2.88,0c.29,0,.36-.11.35-.38,0-.87,0-1.74,0-2.62,0-.31.07-.45.43-.45,1.22,0,1.22,0,1.22,1.2,0,2.25,0,4.5,0,6.75,0,.41-.11.54-.53.53-1.12,0-1.12,0-1.12-1.13,0-.74,0-1.49,0-2.23,0-.26-.07-.35-.34-.35-1,0-1.92,0-2.88,0-.32,0-.38.12-.37.4,0,1,0,1.92,0,2.88,0,.31-.08.42-.41.43-1.2,0-1.2,0-1.2-1.18Z"/><path d="M116.45,81.42c-.55,0-1,0-1.54,0-.1,0-.22-.16-.27-.27-.18-.46-.33-.94-.53-1.4a.5.5,0,0,0-.39-.27c-1,0-1.92,0-2.88,0-.25,0-.35.1-.42.32-.15.46-.3.92-.49,1.37a.44.44,0,0,1-.31.27c-.45,0-.91,0-1.42,0a2.43,2.43,0,0,1,.1-.39c1-2.54,2-5.08,3-7.62.13-.34.33-.42.7-.47a1.26,1.26,0,0,1,1.53,1c.89,2.37,1.85,4.71,2.78,7.07C116.37,81.11,116.4,81.24,116.45,81.42Zm-2.81-3.22-1.3-3.37h-.13L111,77.92c-.08.21,0,.28.21.28Z"/><path d="M101.14,77.2c0-1.26,0-2.52,0-3.78,0-.34.08-.47.45-.47,1.53,0,3.07,0,4.6,0,.33,0,.45.08.44.43,0,.91,0,.91-.9.91s-1.72,0-2.58,0c-.33,0-.43.1-.41.42s0,.8,0,1.2.08.42.41.42c.87,0,1.75,0,2.62,0,.32,0,.46.08.45.43,0,1.1.13.89-.91.91-.73,0-1.46,0-2.19,0-.27,0-.39.07-.38.36,0,.57,0,1.15,0,1.72,0,.3.1.39.39.39,1.14,0,2.27,0,3.4,0,.32,0,.43.11.42.42,0,1.12.1.91-.91.92-1.47,0-3,0-4.42,0-.39,0-.49-.12-.48-.49C101.15,79.69,101.14,78.45,101.14,77.2Z"/><path d="M125.75,77.84c0-1,0-2.06,0-3.09,0-.4-.12-.49-.49-.47-.55,0-1.11,0-1.67,0-.32,0-.47-.07-.45-.42,0-1.1-.13-.9.9-.91,1.81,0,3.61,0,5.42,0,.38,0,.54.08.52.49,0,1,.08.83-.85.85-.45,0-.89,0-1.33,0s-.46.12-.46.47c0,2,0,4.06,0,6.1,0,.57,0,.57-.59.57-1,0-1,0-1-1Z"/><path d="M118.08,77.16c0-1.25,0-2.51,0-3.77,0-.34.11-.44.44-.44,1.17,0,1.17,0,1.17,1.17,0,1.83,0,3.66,0,5.49,0,.37.08.5.47.49,1,0,2,0,3,0,.28,0,.37.09.38.36,0,1,0,1-.93,1-1.35,0-2.7,0-4,0-.35,0-.44-.12-.44-.45C118.09,79.71,118.08,78.44,118.08,77.16Z"/></g></g></svg>